<svg xmlns="http://www.w3.org/2000/svg" width="24" height="18.857"><g data-name="Grupo 1419"><path data-name="Caminho 34" d="M20.143 18.857H3.857A3.862 3.862 0 0 1 0 15V3.857A3.862 3.862 0 0 1 3.857 0h16.286A3.862 3.862 0 0 1 24 3.857V15a3.862 3.862 0 0 1-3.857 3.857ZM3.857 1.714a2.142 2.142 0 0 0-2.143 2.143V15a2.142 2.142 0 0 0 2.143 2.143h16.286A2.142 2.142 0 0 0 22.286 15V3.857a2.142 2.142 0 0 0-2.143-2.143Z" fill="#ff3e3e"/></g><g data-name="Grupo 1420"><path data-name="Caminho 35" d="M7.715 14.466H5.144a1.605 1.605 0 0 1-1.607-1.608V11.79a1.605 1.605 0 0 1 1.607-1.608h2.571a1.605 1.605 0 0 1 1.607 1.608v1.072a1.605 1.605 0 0 1-1.607 1.604Zm15.428-6.861H.858V4.39h22.285Z" fill="#ff3e3e"/></g></svg>