<svg xmlns="http://www.w3.org/2000/svg" width="18.857" height="24"><g fill="#ff3e3e"><path d="M3.429 0A3.442 3.442 0 0 0 0 3.429v17.142A3.442 3.442 0 0 0 3.429 24h12a3.442 3.442 0 0 0 3.429-3.429V10.138a2.573 2.573 0 0 0-.753-1.818L10.538.753A2.573 2.573 0 0 0 8.719 0h-5.29Zm0 1.714h5.29a.856.856 0 0 1 .606.251l7.567 7.567a.856.856 0 0 1 .251.606v10.433a1.7 1.7 0 0 1-1.714 1.714h-12a1.7 1.7 0 0 1-1.714-1.714V3.429a1.7 1.7 0 0 1 1.714-1.715Z"/><path d="M9.415.417a.857.857 0 0 0-.844.869v6.429a2.585 2.585 0 0 0 2.571 2.571h6.429a.857.857 0 1 0 0-1.714h-6.429a.844.844 0 0 1-.855-.857V1.286a.857.857 0 0 0-.87-.869ZM5.142 12.858a.857.857 0 1 0 0 1.714h8.571a.857.857 0 1 0 0-1.714Zm0 4.286a.857.857 0 1 0 0 1.714h8.571a.857.857 0 1 0 0-1.714Z"/></g></svg>