<svg xmlns="http://www.w3.org/2000/svg" width="24" height="22.152"><path d="M6.411 0A6.509 6.509 0 0 0 .003 6.5a13.556 13.556 0 0 0 3.381 8.827 35.433 35.433 0 0 0 7.58 6.507 1.852 1.852 0 0 0 2.076 0 35.437 35.437 0 0 0 7.579-6.507A13.558 13.558 0 0 0 24 6.5 6.509 6.509 0 0 0 17.591 0 7.134 7.134 0 0 0 12 2.951 7.134 7.134 0 0 0 6.411 0Zm0 1.846c3.139 0 4.766 3.182 4.766 3.182a.923.923 0 0 0 1.651 0s1.627-3.182 4.766-3.182a4.644 4.644 0 0 1 4.562 4.671 11.611 11.611 0 0 1-2.963 7.638 33.962 33.962 0 0 1-7.189 6.151 33.957 33.957 0 0 1-7.19-6.151 11.61 11.61 0 0 1-2.963-7.638 4.644 4.644 0 0 1 4.56-4.671Z" fill="#ff3e3e"/></svg>