<svg xmlns="http://www.w3.org/2000/svg" width="17.164" height="24"><g fill="#ff3e3e"><g data-name="Maps"><path data-name="Caminho 30" d="M8.576.011a8.406 8.406 0 0 0-8.571 8.2c0 2.646 1.366 5.705 2.914 8.507a61.96 61.96 0 0 0 4.28 6.595 1.729 1.729 0 0 0 2.754 0 62.527 62.527 0 0 0 4.28-6.595c1.554-2.8 2.914-5.861 2.914-8.507a8.406 8.406 0 0 0-8.571-8.2Zm0 1.714a6.668 6.668 0 0 1 6.857 6.482c0 2.02-1.205 4.982-2.7 7.677a61 61 0 0 1-4.157 6.4 60.615 60.615 0 0 1-4.157-6.407c-1.495-2.689-2.7-5.657-2.7-7.671a6.668 6.668 0 0 1 6.857-6.481Z"/><path data-name="Caminho 31" d="M8.577 24a1.7 1.7 0 0 1-1.382-.686 62.178 62.178 0 0 1-4.28-6.6C.927 13.125 0 10.42 0 8.207a7.83 7.83 0 0 1 .68-3.2A8.194 8.194 0 0 1 2.529 2.4 8.664 8.664 0 0 1 5.256.643a8.929 8.929 0 0 1 6.654 0A8.512 8.512 0 0 1 14.637 2.4a8.136 8.136 0 0 1 1.848 2.609 7.83 7.83 0 0 1 .68 3.2 12.106 12.106 0 0 1-.879 4.2 31.982 31.982 0 0 1-2.041 4.312 61.429 61.429 0 0 1-4.28 6.595A1.718 1.718 0 0 1 8.577 24Zm0-23.984a8.791 8.791 0 0 0-3.321.643 8.625 8.625 0 0 0-2.721 1.752 8.181 8.181 0 0 0-1.843 2.6 7.805 7.805 0 0 0-.68 3.193c0 2.212.927 4.913 2.914 8.5a61.99 61.99 0 0 0 4.28 6.595 1.668 1.668 0 0 0 1.371.68 1.668 1.668 0 0 0 1.371-.68 62.555 62.555 0 0 0 4.28-6.595A31.679 31.679 0 0 0 16.27 12.4a12.16 12.16 0 0 0 .873-4.2 7.805 7.805 0 0 0-.68-3.193 8.24 8.24 0 0 0-1.843-2.6A8.625 8.625 0 0 0 11.899.655 9 9 0 0 0 8.577.016Zm0 22.28-.005-.005a60.091 60.091 0 0 1-4.157-6.407A30.72 30.72 0 0 1 2.5 11.791a10.917 10.917 0 0 1-.793-3.584 6.179 6.179 0 0 1 .536-2.518 6.445 6.445 0 0 1 1.462-2.062 7.157 7.157 0 0 1 9.729 0 6.445 6.445 0 0 1 1.463 2.063 6.179 6.179 0 0 1 .536 2.518 10.916 10.916 0 0 1-.793 3.589 29.765 29.765 0 0 1-1.912 4.093 60.468 60.468 0 0 1-4.157 6.4Zm0-20.566a7 7 0 0 0-4.854 1.9 6.424 6.424 0 0 0-1.462 2.057A6.173 6.173 0 0 0 1.725 8.2a10.974 10.974 0 0 0 .787 3.579 30.643 30.643 0 0 0 1.907 4.093 61.57 61.57 0 0 0 4.152 6.4 61.569 61.569 0 0 0 4.152-6.4 29.693 29.693 0 0 0 1.907-4.093 10.834 10.834 0 0 0 .788-3.579 6.154 6.154 0 0 0-.536-2.513A6.423 6.423 0 0 0 13.42 3.63a6.977 6.977 0 0 0-4.843-1.9Z"/></g><path data-name="Caminho 32" d="M8.577 5.152a3.431 3.431 0 1 0 3.431 3.431 3.441 3.441 0 0 0-3.431-3.431Zm0 1.715a1.715 1.715 0 1 1-1.715 1.715 1.7 1.7 0 0 1 1.715-1.715Z"/><path data-name="Caminho 33" d="M8.576 12.019a3.459 3.459 0 1 1 2.428-1.013 3.416 3.416 0 0 1-2.428 1.013Zm0-6.862a3.441 3.441 0 1 0 2.418 1.008 3.4 3.4 0 0 0-2.418-1.008Zm0 5.146a1.7 1.7 0 1 1 1.222-.5 1.714 1.714 0 0 1-1.222.501Zm0-3.431a1.7 1.7 0 1 0 1.211.5 1.7 1.7 0 0 0-1.211-.499Z"/></g></svg>