<svg xmlns="http://www.w3.org/2000/svg" width="22.4" height="24"><g transform="translate(-132 -450)" fill="#ff3e3e"><path data-name="Caminho 36" d="M153.6 474h-8a.809.809 0 0 1-.095-.006 1.008 1.008 0 0 1-.105.006h-12.6a.8.8 0 0 1-.8-.8v-20.8a2.4 2.4 0 0 1 2.4-2.4h9.6a2.4 2.4 0 0 1 2.4 2.4v5.6h5.6a2.4 2.4 0 0 1 2.4 2.4v12.8a.8.8 0 0 1-.8.8Zm-7.2-1.6h6.4v-12a.8.8 0 0 0-.8-.8h-5.6Zm-12.8 0h11.2v-20a.8.8 0 0 0-.8-.8h-9.6a.8.8 0 0 0-.8.8Z"/><path data-name="Caminho 37" d="M135.306 470.791a.8.8 0 1 1 .69-.689.8.8 0 0 1-.69.689Zm0-4a.8.8 0 1 1 .69-.689.8.8 0 0 1-.69.69Zm0-4a.8.8 0 1 1 .69-.689.8.8 0 0 1-.69.695Zm0-4a.8.8 0 1 1 .69-.689.8.8 0 0 1-.69.695Zm0-4a.8.8 0 1 1 .69-.689.8.8 0 0 1-.69.695Zm4 12a.8.8 0 1 1 .69-.689.8.8 0 0 1-.687.69Zm0-4a.8.8 0 1 1 .69-.689.8.8 0 0 1-.687.695Zm0-4a.8.8 0 1 1 .69-.689.8.8 0 0 1-.687.695Zm0-4a.8.8 0 1 1 .69-.689.8.8 0 0 1-.687.695Zm4 16a.8.8 0 1 1 .69-.689.8.8 0 0 1-.685.689Zm0-4a.8.8 0 1 1 .69-.689.8.8 0 0 1-.685.69Zm0-4a.8.8 0 1 1 .69-.689.8.8 0 0 1-.685.695Z"/><ellipse data-name="Elipse 44" cx=".798" cy=".802" rx=".798" ry=".802" transform="rotate(-45 623.886 57.506)"/><path data-name="Caminho 38" d="M143.297 454.797a.8.8 0 1 1 .69-.689.8.8 0 0 1-.69.689Zm7.1 14.4a.8.8 0 1 0 .8.8.8.8 0 0 0-.8-.8Zm0-4a.8.8 0 1 0 .8.8.8.8 0 0 0-.8-.8Zm0-4a.8.8 0 1 0 .8.8.8.8 0 0 0-.8-.8Zm-3.2 8a.8.8 0 1 0 .8.8.8.8 0 0 0-.802-.8Zm0-4a.8.8 0 1 0 .8.8.8.8 0 0 0-.802-.8Zm0-4a.8.8 0 1 0 .8.8.8.8 0 0 0-.802-.8Z"/><ellipse data-name="Elipse 45" cx=".798" cy=".802" rx=".798" ry=".802" transform="rotate(-45 636.332 68.422)"/><path data-name="Retângulo 1138" d="M138.327 469.997h1.6v3h-1.6z"/></g></svg>