<svg xmlns="http://www.w3.org/2000/svg" width="24" height="24.001"><g fill="#ff3e3e"><path d="M12.168.001a12 12 0 1 0 11.831 11.833A12.016 12.016 0 0 0 12.168.001Zm7.293 18.879a.231.231 0 0 1-.354-.018 7.169 7.169 0 0 0-1.866-1.707 10.122 10.122 0 0 0-10.48 0 7.167 7.167 0 0 0-1.866 1.706.231.231 0 0 1-.354.018 10.114 10.114 0 0 1-2.693-6.706A10.154 10.154 0 1 1 22.155 12a10.114 10.114 0 0 1-2.694 6.88Z"/><path d="M12 5.539a3.813 3.813 0 0 0-3.911 4.2 3.916 3.916 0 1 0 7.822 0 3.875 3.875 0 0 0-1.02-2.989A3.918 3.918 0 0 0 12 5.539Z"/></g></svg>