<svg xmlns="http://www.w3.org/2000/svg" width="64" height="64" viewBox="0 0 64 64">
  <g id="Grupo_761" data-name="Grupo 761" transform="translate(-1747 -933)">
    <rect id="Retângulo_649" data-name="Retângulo 649" width="64" height="64" rx="8" transform="translate(1747 933)" fill="#ff3e3e"/>
    <g id="g22" transform="translate(1755 939)">
      <path id="path4" d="M72,32.041a7.374,7.374,0,0,0-3.712,1L50.751,43.249h0A5.545,5.545,0,0,0,48,48.028V67.733h0a5.546,5.546,0,0,0,2.75,4.782h0L68.29,82.724h0a7.392,7.392,0,0,0,7.422,0h0L93.252,72.517h0A5.545,5.545,0,0,0,96,67.734h0V48.028a5.546,5.546,0,0,0-2.75-4.779h0L75.711,33.042a7.374,7.374,0,0,0-3.712-1Zm0,3.69a3.682,3.682,0,0,1,1.854.5h0L91.392,46.439a1.839,1.839,0,0,1,.917,1.593v19.7a1.839,1.839,0,0,1-.916,1.594L73.856,79.533a3.685,3.685,0,0,1-3.71,0L52.609,69.326a1.839,1.839,0,0,1-.917-1.593v-19.7a1.839,1.839,0,0,1,.916-1.592h0L70.145,36.233h0a3.682,3.682,0,0,1,1.854-.5Z" transform="translate(-48 -32.041)" fill="#fff"/>
      <path id="path6" d="M98.064,137.875a1.846,1.846,0,0,0-1,.268L76.42,150.285,55.779,138.143a1.846,1.846,0,1,0-1.872,3.183l20.667,12.157V175.5a1.846,1.846,0,1,0,3.693,0V153.483l20.667-12.157a1.846,1.846,0,0,0-.869-3.45Z" transform="translate(-52.419 -125.663)" fill="#fff"/>
    </g>
  </g>
</svg>
