<svg xmlns="http://www.w3.org/2000/svg" width="64" height="64" viewBox="0 0 64 64">
  <g id="Grupo_758" data-name="Grupo 758" transform="translate(-341 -167)">
    <rect id="Retângulo_645" data-name="Retângulo 645" width="64" height="64" rx="8" transform="translate(341 167)" fill="#ff3e3e"/>
    <g id="g32" transform="translate(348.885 174.885)">
      <path id="path4" d="M36.219,32A4.257,4.257,0,0,0,32,36.219s0,0,0,0V73.4s0,0,0,0a5.952,5.952,0,0,0,5.909,5.909H72.553V75.932H37.919a2.522,2.522,0,0,1-2.54-2.54V36.229a.828.828,0,0,1,.85-.85H64.944a.828.828,0,0,1,.85.85V72.538h3.379V36.219A4.257,4.257,0,0,0,64.954,32H36.219Z" transform="translate(-32 -32)" fill="#fff"/>
      <path id="path6" d="M353.69,112a1.69,1.69,0,0,0-1.69,1.69V144.1a6.759,6.759,0,1,0,13.518,0v-27.88A4.25,4.25,0,0,0,361.293,112Zm1.69,3.379h5.914a.821.821,0,0,1,.845.845V144.1a3.379,3.379,0,0,1-6.759,0Z" transform="translate(-318.206 -103.551)" fill="#fff"/>
      <path id="path8" d="M111.206,112a1.69,1.69,0,1,0,0,3.38h6.759a1.69,1.69,0,1,0,0-3.38Zm0,6.759a1.69,1.69,0,1,0,0,3.38h6.759a1.69,1.69,0,1,0,0-3.38Zm-13.518,6.759a1.69,1.69,0,1,0,0,3.38h20.276a1.69,1.69,0,1,0,0-3.38Zm0,6.759a1.69,1.69,0,1,0,0,3.38h20.276a1.69,1.69,0,1,0,0-3.38Zm0,6.759a1.69,1.69,0,1,0,0,3.38h20.276a1.69,1.69,0,1,0,0-3.38Z" transform="translate(-89.24 -103.55)" fill="#fff"/>
      <path id="path10" d="M104.449,122.138H97.69a1.69,1.69,0,0,1-1.69-1.69V113.69A1.69,1.69,0,0,1,97.69,112h6.759a1.69,1.69,0,0,1,1.69,1.69v6.759A1.69,1.69,0,0,1,104.449,122.138Z" transform="translate(-89.241 -103.551)" fill="#fff"/>
    </g>
  </g>
</svg>
