<svg xmlns="http://www.w3.org/2000/svg" width="64" height="64" viewBox="0 0 64 64">
  <g id="Grupo_759" data-name="Grupo 759" transform="translate(-70 -1255)">
    <rect id="Retângulo_635" data-name="Retângulo 635" width="64" height="64" rx="8" transform="translate(70 1255)" fill="#ff3e3e"/>
    <g id="g22" transform="translate(78.021 1265.152)">
      <path id="path4" d="M183.069,80A7.075,7.075,0,0,0,176,87.018v5.013a2.02,2.02,0,0,0,4.04,0V87.018a2.989,2.989,0,0,1,3.03-3.008h20.2a2.989,2.989,0,0,1,3.03,3.008V117.1a2.989,2.989,0,0,1-3.03,3.008h-19.19a5.1,5.1,0,0,1-2.83-1.041,2.7,2.7,0,0,1-1.21-1.966v-5.013a2.02,2.02,0,0,0-4.04,0V117.1a6.592,6.592,0,0,0,2.758,5.123,8.722,8.722,0,0,0,5.322,1.895h19.19a7.075,7.075,0,0,0,7.07-7.018V87.018A7.075,7.075,0,0,0,203.269,80Z" transform="translate(-161.962 -80)" fill="#fff"/>
      <path id="path6" d="M92.05,159.838a2.005,2.005,0,0,0-1.4,3.443l6.6,6.6H66a2.005,2.005,0,1,0,0,4.01H97.255l-6.6,6.6a2.005,2.005,0,1,0,2.836,2.836l10.026-10.026a2.005,2.005,0,0,0,0-2.836L93.489,160.445A2.005,2.005,0,0,0,92.05,159.838Z" transform="translate(-63.998 -149.832)" fill="#fff"/>
    </g>
  </g>
</svg>
