<svg xmlns="http://www.w3.org/2000/svg" width="36.858" height="24"><g fill="#ff3e3e"><path d="M1.929 0A1.944 1.944 0 0 0 0 1.929v7.286a1.944 1.944 0 0 0 1.929 1.929h7.286a1.944 1.944 0 0 0 1.929-1.929V1.929A1.944 1.944 0 0 0 9.214 0Zm0 1.714h7.286a.2.2 0 0 1 .214.214v7.286a.2.2 0 0 1-.214.214H1.929a.2.2 0 0 1-.214-.214V1.929a.2.2 0 0 1 .214-.215ZM14.786 0a1.944 1.944 0 0 0-1.929 1.929v7.286a1.944 1.944 0 0 0 1.929 1.929h7.286a1.943 1.943 0 0 0 1.929-1.929V1.929A1.943 1.943 0 0 0 22.071 0Zm0 1.714h7.286a.2.2 0 0 1 .214.214v7.286a.2.2 0 0 1-.214.214h-7.286a.2.2 0 0 1-.214-.214V1.929a.2.2 0 0 1 .214-.215ZM1.929 12.857A1.944 1.944 0 0 0 0 14.786v7.286a1.943 1.943 0 0 0 1.929 1.929h7.286a1.943 1.943 0 0 0 1.929-1.929v-7.286a1.944 1.944 0 0 0-1.93-1.929Zm0 1.714h7.286a.2.2 0 0 1 .214.214v7.286a.2.2 0 0 1-.214.214H1.929a.2.2 0 0 1-.214-.214v-7.286a.2.2 0 0 1 .214-.214ZM14.786 12.857a1.944 1.944 0 0 0-1.929 1.929v7.286a1.943 1.943 0 0 0 1.929 1.929h7.286a1.943 1.943 0 0 0 1.929-1.929v-7.286a1.943 1.943 0 0 0-1.93-1.929Zm0 1.714h7.286a.2.2 0 0 1 .214.214v7.286a.2.2 0 0 1-.214.214h-7.286a.2.2 0 0 1-.214-.214v-7.286a.2.2 0 0 1 .214-.214ZM27.644 0a1.944 1.944 0 0 0-1.929 1.929v7.286a1.944 1.944 0 0 0 1.929 1.929h7.286a1.943 1.943 0 0 0 1.929-1.929V1.929A1.943 1.943 0 0 0 34.929 0Zm0 1.714h7.286a.2.2 0 0 1 .214.214v7.286a.2.2 0 0 1-.214.214h-7.286a.2.2 0 0 1-.214-.214V1.929a.2.2 0 0 1 .214-.215ZM27.644 12.857a1.944 1.944 0 0 0-1.929 1.929v7.286a1.943 1.943 0 0 0 1.929 1.929h7.286a1.943 1.943 0 0 0 1.929-1.929v-7.286a1.943 1.943 0 0 0-1.93-1.929Zm0 1.714h7.286a.2.2 0 0 1 .214.214v7.286a.2.2 0 0 1-.214.214h-7.286a.2.2 0 0 1-.214-.214v-7.286a.2.2 0 0 1 .214-.214Z"/></g></svg>