<svg xmlns="http://www.w3.org/2000/svg" width="56" height="51.333" viewBox="0 0 56 51.333">
  <path id="log-in" d="M111.833,80H88.5a8.175,8.175,0,0,0-8.167,8.167v15.167H102.7l-7.682-7.684a2.333,2.333,0,0,1,3.3-3.3l11.667,11.667a2.333,2.333,0,0,1,0,3.3L98.316,118.983a2.333,2.333,0,0,1-3.3-3.3L102.7,108H80.333v15.167c0,4.674,4.928,8.167,9.333,8.167h22.167A8.175,8.175,0,0,0,120,123.167v-35A8.175,8.175,0,0,0,111.833,80Zm-45.5,23.333a2.333,2.333,0,1,0,0,4.667h14v-4.667Z" transform="translate(-64 -80)" fill="#ff3e3e"/>
</svg>
