<svg xmlns="http://www.w3.org/2000/svg" width="56.004" height="60.004" viewBox="0 0 56.004 60.004">
  <g id="business" transform="translate(-32 -16)">
    <path id="Caminho_45" data-name="Caminho 45" d="M82,36H68V22a6,6,0,0,0-6-6H38a6,6,0,0,0-6,6V74a2,2,0,0,0,2,2H47a1,1,0,0,0,1-1V66.06a2.039,2.039,0,0,1,1.9-2.054A2,2,0,0,1,52,66v9a1,1,0,0,0,1,1H86a2,2,0,0,0,2-2V42a6,6,0,0,0-6-6ZM40.261,67.987a2,2,0,1,1,1.724-1.724A2,2,0,0,1,40.261,67.987Zm0-10a2,2,0,1,1,1.724-1.724A2,2,0,0,1,40.261,57.986Zm0-10a2,2,0,1,1,1.724-1.724A2,2,0,0,1,40.261,47.986Zm0-10a2,2,0,1,1,1.724-1.724A2,2,0,0,1,40.261,37.985Zm0-10a2,2,0,1,1,1.724-1.724A2,2,0,0,1,40.261,27.985Zm10,30a2,2,0,1,1,1.724-1.724A2,2,0,0,1,50.261,57.986Zm0-10a2,2,0,1,1,1.724-1.724A2,2,0,0,1,50.261,47.986Zm0-10a2,2,0,1,1,1.724-1.724A2,2,0,0,1,50.261,37.985Zm0-10a2,2,0,1,1,1.724-1.724A2,2,0,0,1,50.261,27.985Zm10,40a2,2,0,1,1,1.724-1.724A2,2,0,0,1,60.262,67.987Zm0-10a2,2,0,1,1,1.724-1.724A2,2,0,0,1,60.262,57.986Zm0-10a2,2,0,1,1,1.724-1.724A2,2,0,0,1,60.262,47.986Zm0-10a2,2,0,1,1,1.724-1.724A2,2,0,0,1,60.262,37.985Zm0-10a2,2,0,1,1,1.724-1.724A2,2,0,0,1,60.262,27.985ZM83.5,72H68V40H82a2,2,0,0,1,2,2V71.5A.5.5,0,0,1,83.5,72Z" fill="#ff3e3e"/>
    <path id="Caminho_46" data-name="Caminho 46" d="M330,260a2,2,0,1,0,2,2A2,2,0,0,0,330,260Zm0-10a2,2,0,1,0,2,2A2,2,0,0,0,330,250Zm0-10a2,2,0,1,0,2,2A2,2,0,0,0,330,240Zm-8,20a2,2,0,1,0,2,2A2,2,0,0,0,322,260Zm0-10a2,2,0,1,0,2,2A2,2,0,0,0,322,250Zm0-10a2,2,0,1,0,2,2A2,2,0,0,0,322,240Z" transform="translate(-251.998 -195.998)" fill="#ff3e3e"/>
  </g>
</svg>
