<svg xmlns="http://www.w3.org/2000/svg" width="32" height="32"><g data-name="Grupo 751"><path data-name="Retângulo 645" fill="none" d="M0 0h32v32H0z"/><g fill="#ff3e3e"><path d="M6.14 4A2.16 2.16 0 0 0 4 6.14V25a3.019 3.019 0 0 0 3 3h17.571v-1.714H7A1.279 1.279 0 0 1 5.714 25V6.145a.42.42 0 0 1 .431-.431h14.567a.42.42 0 0 1 .431.431v18.419h1.714V6.14A2.16 2.16 0 0 0 20.717 4H6.14Z"/><path d="M22 8.286a.857.857 0 0 0-.857.857v15.429a3.429 3.429 0 1 0 6.857 0V10.429a2.156 2.156 0 0 0-2.143-2.143ZM22.857 10h3a.416.416 0 0 1 .429.429v14.143a1.714 1.714 0 0 1-3.429 0ZM15.143 8.287a.857.857 0 1 0 0 1.714h3.429a.857.857 0 1 0 0-1.714Zm0 3.429a.857.857 0 1 0 0 1.714h3.429a.857.857 0 1 0 0-1.714Zm-6.857 3.429a.857.857 0 1 0 0 1.714h10.286a.857.857 0 1 0 0-1.714Zm0 3.429a.857.857 0 1 0 0 1.714h10.286a.857.857 0 1 0 0-1.714Zm0 3.429a.857.857 0 1 0 0 1.714h10.286a.857.857 0 1 0 0-1.714ZM11.715 13.429H8.286a.857.857 0 0 1-.857-.857V9.143a.857.857 0 0 1 .857-.857h3.429a.857.857 0 0 1 .857.857v3.429a.857.857 0 0 1-.857.857Z"/></g></g></svg>