<svg xmlns="http://www.w3.org/2000/svg" width="32" height="32"><g data-name="Grupo 656"><path data-name="Retângulo 597" fill="none" d="M0 0h32v32H0z"/><path d="M7 7a3.012 3.012 0 0 0-3 3v12.85a3.012 3.012 0 0 0 3 3h10.28a3.012 3.012 0 0 0 3-3v-2.142a.857.857 0 1 0-1.714 0v2.142a1.272 1.272 0 0 1-1.285 1.285H7a1.272 1.272 0 0 1-1.285-1.285V10A1.272 1.272 0 0 1 7 8.713h10.28A1.272 1.272 0 0 1 18.565 10v2.14a.857.857 0 1 0 1.714 0V10a3.012 3.012 0 0 0-3-3Zm15.841 4.275a.857.857 0 0 0-.6 1.471l2.821 2.821H12.514a.857.857 0 1 0 0 1.714h12.55L22.243 20.1a.857.857 0 1 0 1.212 1.212l4.208-4.212a.857.857 0 0 0 0-1.364l-4.206-4.206a.857.857 0 0 0-.615-.26Z" fill="#363c4a"/></g></svg>