<svg xmlns="http://www.w3.org/2000/svg" width="32" height="54.286" viewBox="0 0 32 54.286">
  <g id="Grupo_1567" data-name="Grupo 1567" transform="translate(-940 -749)">
    <path id="chevron-down" d="M104,178.286a2.279,2.279,0,0,1-1.616-.669L88.669,163.9a2.286,2.286,0,0,1,3.232-3.232l12.1,12.1,12.1-12.1a2.286,2.286,0,0,1,3.232,3.232l-13.714,13.714A2.279,2.279,0,0,1,104,178.286Z" transform="translate(852 589)" fill="#363c4a"/>
    <path id="chevron-down-2" data-name="chevron-down" d="M104,178.286a2.279,2.279,0,0,1-1.616-.669L88.669,163.9a2.286,2.286,0,0,1,3.232-3.232l12.1,12.1,12.1-12.1a2.286,2.286,0,0,1,3.232,3.232l-13.714,13.714A2.279,2.279,0,0,1,104,178.286Z" transform="translate(852 607)" fill="#363c4a" opacity="0.598"/>
    <path id="chevron-down-3" data-name="chevron-down" d="M104,178.286a2.279,2.279,0,0,1-1.616-.669L88.669,163.9a2.286,2.286,0,0,1,3.232-3.232l12.1,12.1,12.1-12.1a2.286,2.286,0,0,1,3.232,3.232l-13.714,13.714A2.279,2.279,0,0,1,104,178.286Z" transform="translate(852 625)" fill="#363c4a" opacity="0.202"/>
  </g>
</svg>
