<svg xmlns="http://www.w3.org/2000/svg" width="32" height="32"><g data-name="Grupo 657"><path data-name="Retângulo 574" fill="none" d="M0 0h32v32H0z"/><path d="M10.411 5a6.509 6.509 0 0 0-6.408 6.5 13.556 13.556 0 0 0 3.381 8.827 35.433 35.433 0 0 0 7.58 6.507 1.852 1.852 0 0 0 2.076 0 35.437 35.437 0 0 0 7.579-6.507A13.558 13.558 0 0 0 28 11.5 6.509 6.509 0 0 0 21.591 5 7.134 7.134 0 0 0 16 7.951 7.134 7.134 0 0 0 10.411 5Zm0 1.846c3.139 0 4.766 3.182 4.766 3.182a.923.923 0 0 0 1.651 0s1.627-3.182 4.766-3.182a4.644 4.644 0 0 1 4.562 4.671 11.611 11.611 0 0 1-2.963 7.638 33.962 33.962 0 0 1-7.189 6.151 33.957 33.957 0 0 1-7.19-6.151 11.61 11.61 0 0 1-2.963-7.638 4.644 4.644 0 0 1 4.56-4.671Z" fill="#363c4a"/></g></svg>