<svg xmlns="http://www.w3.org/2000/svg" width="16" height="16"><g data-name="Grupo 1487"><path data-name="Retângulo 573" fill="none" d="M0 0h16v16H0z"/><g data-name="Grupo 1471" fill="red"><path data-name="Caminho 42" d="M7.866 1.966a5.9 5.9 0 1 1-5.9 5.9 5.9 5.9 0 0 1 5.9-5.9Zm0 10.888a4.99 4.99 0 1 0-4.99-4.99 5 5 0 0 0 4.99 4.99Z"/><path data-name="Caminho 43" d="M6.05 10.131a.453.453 0 0 1-.321-.774L9.356 5.73a.453.453 0 0 1 .641.641L6.37 9.998a.452.452 0 0 1-.32.133Z"/><path data-name="Caminho 43" d="M9.677 10.131a.453.453 0 0 0 .321-.774L6.371 5.73a.453.453 0 1 0-.641.641l3.627 3.627a.452.452 0 0 0 .32.133Z"/></g></g></svg>