<svg xmlns="http://www.w3.org/2000/svg" width="24" height="24" viewBox="0 0 24 24">
  <g id="Grupo_1049" data-name="Grupo 1049" transform="translate(642 -763)">
    <rect id="Retângulo_600" data-name="Retângulo 600" width="24" height="24" transform="translate(-642 763)" fill="none"/>
    <path id="path4" d="M128.835,127.838a1,1,0,0,0-.7,1.716l6.289,6.289-6.289,6.289a1,1,0,1,0,1.413,1.413l6.289-6.289,6.289,6.289a1,1,0,1,0,1.413-1.413l-6.289-6.289,6.289-6.289a1,1,0,1,0-1.413-1.413l-6.289,6.289-6.289-6.289a1,1,0,0,0-.717-.3Z" transform="translate(-765.836 639.162)" fill="#363c4a"/>
  </g>
</svg>
