<svg xmlns="http://www.w3.org/2000/svg" width="32" height="32"><g data-name="Grupo 652"><path data-name="Retângulo 596" fill="none" d="M0 0h32v32H0z"/><g fill="#363c4a"><path d="M10.429 4A3.442 3.442 0 0 0 7 7.429v17.142A3.442 3.442 0 0 0 10.429 28h12a3.442 3.442 0 0 0 3.429-3.429V14.138a2.573 2.573 0 0 0-.753-1.818l-7.567-7.567A2.573 2.573 0 0 0 15.719 4h-5.29Zm0 1.714h5.29a.856.856 0 0 1 .606.251l7.567 7.567a.856.856 0 0 1 .251.606v10.433a1.7 1.7 0 0 1-1.714 1.714h-12a1.7 1.7 0 0 1-1.714-1.714V7.429a1.7 1.7 0 0 1 1.714-1.715Z"/><path d="M16.415 4.417a.857.857 0 0 0-.844.869v6.429a2.585 2.585 0 0 0 2.571 2.571h6.429a.857.857 0 1 0 0-1.714h-6.429a.844.844 0 0 1-.855-.857V5.286a.857.857 0 0 0-.87-.869Zm-4.273 12.441a.857.857 0 1 0 0 1.714h8.571a.857.857 0 1 0 0-1.714Zm0 4.286a.857.857 0 1 0 0 1.714h8.571a.857.857 0 1 0 0-1.714Z"/></g></g></svg>