<svg xmlns="http://www.w3.org/2000/svg" width="24" height="24"><g data-name="Grupo 980"><path data-name="Retângulo 599" fill="none" d="M0 0h24v24H0z"/><g fill="#ff3e3e"><path d="M6.726 6.274a.572.572 0 0 0-.583.615l.714 11.432v-.006A1.754 1.754 0 0 0 8.571 20h6.573a1.76 1.76 0 0 0 1.714-1.68l.714-11.43a.572.572 0 1 0-1.141-.071l-.714 11.431c-.025.407-.233.606-.573.606H8.571c-.336 0-.552-.2-.572-.6v-.006L7.285 6.819a.572.572 0 0 0-.559-.545Z"/><path d="M5.572 6.284a.571.571 0 1 0 0 1.141h12.571a.571.571 0 1 0 0-1.141Z"/><path d="M10.429 4a1.434 1.434 0 0 0-1.428 1.431v1.427a.571.571 0 1 0 1.141 0V5.427a.275.275 0 0 1 .284-.284h2.857a.275.275 0 0 1 .284.284v1.431a.571.571 0 1 0 1.141 0V5.43A1.434 1.434 0 0 0 13.282 4Zm1.416 4.564a.571.571 0 0 0-.562.58v8a.571.571 0 1 0 1.141 0v-8a.571.571 0 0 0-.579-.58Zm2.588 0a.571.571 0 0 0-.582.559l-.285 8a.571.571 0 1 0 1.141.041l.285-8a.571.571 0 0 0-.558-.6Zm-5.12 0a.571.571 0 0 0-.6.6l.285 8a.571.571 0 1 0 1.141-.041l-.285-8a.571.571 0 0 0-.542-.559Z"/></g></g></svg>