<svg xmlns="http://www.w3.org/2000/svg" width="24" height="22.152"><path d="M6.411 0A6.509 6.509 0 0 0 .003 6.5a13.556 13.556 0 0 0 3.381 8.827 35.433 35.433 0 0 0 7.58 6.507 1.852 1.852 0 0 0 2.076 0 35.437 35.437 0 0 0 7.579-6.507A13.558 13.558 0 0 0 24 6.5 6.509 6.509 0 0 0 17.591 0 7.134 7.134 0 0 0 12 2.951 7.134 7.134 0 0 0 6.411 0Zm4.624 20.613c3.139 0 .142-15.585.142-15.585l-2.4.351 3.854 7.512c.35 0 .041-7.55.2-7.863 0 0-3.817 15.4-.678 15.4 1.315 0 6.345-2.881 8.74-7.066 1.914-3.344 1.253-8.071 1.265-6.844a11.611 11.611 0 0 1-2.963 7.638 33.962 33.962 0 0 1-7.189 6.151 33.957 33.957 0 0 1-7.19-6.151C2.957 11.89 3.961 6.389 3.99 3.485H.906c1.531 2.234 1.016 8.575 1.016 8.575s7.742 8.553 9.11 8.553Z" fill="#ff3e3e"/></svg>