<svg xmlns="http://www.w3.org/2000/svg" width="24" height="24"><path d="M16.5 0a7.241 7.241 0 1 1 0 14.473 6.957 6.957 0 0 1-2.442-.395 2.388 2.388 0 0 1-.866.429 1.434 1.434 0 0 1-.232.024 3.913 3.913 0 0 1-.968-.194l-.241-.066c.041.091.089.188.125.261a1.908 1.908 0 0 1 .3 1.233 2.8 2.8 0 0 1-2.03 1.83 1.4 1.4 0 0 1-.162.009 2.162 2.162 0 0 1-.906-.24 1.845 1.845 0 0 1 .17.759 1.967 1.967 0 0 1-.743 1.447 2.175 2.175 0 0 1-1.58.719 3.977 3.977 0 0 1-.8-.11 3.782 3.782 0 0 0-.327-.061c.009.076.028.182.041.26a2.112 2.112 0 0 1-.392 1.991c-.117.115-.213.217-.328.338-.209.22-.473.5-1 1.014a1 1 0 0 1-.7.277c-.9 0-2.377-1.5-2.664-1.8A2.669 2.669 0 0 1 0 20.468a1.941 1.941 0 0 1 .644-1.442c.493-.475 6.365-7.369 8.6-9.992a8.41 8.41 0 0 1-.13-1.793A7.238 7.238 0 0 1 16.5 0Zm0 12.759a5.528 5.528 0 1 0 0-11.045 5.542 5.542 0 0 0-5.673 5.527A5.425 5.425 0 0 0 11 8.963a.857.857 0 0 1-.157.837l-.277.325c-4.247 4.986-8.247 9.668-8.754 10.156a.247.247 0 0 0-.1.186.96.96 0 0 0 .277.548 11.235 11.235 0 0 0 1.289 1.12c.275-.274.447-.456.591-.608.116-.123.216-.228.333-.344a2.649 2.649 0 0 0-.058-.51 2.043 2.043 0 0 1 .033-1.182 1.612 1.612 0 0 1 1.281-1.058 1.46 1.46 0 0 1 .3-.03 3.445 3.445 0 0 1 .713.1 2.841 2.841 0 0 0 .44.073c.105 0 .142 0 .421-.262a.84.84 0 0 0 .194-.212c-.005-.008-.059-.128-.095-.208a1.682 1.682 0 0 1 .187-2.031 1.4 1.4 0 0 1 1-.409 2.516 2.516 0 0 1 1.065.3c.088.041.215.1.288.124a1.636 1.636 0 0 0 .455-.4 8.463 8.463 0 0 0-.091-.187 2.377 2.377 0 0 1-.358-1.537 1.92 1.92 0 0 1 1.265-1.239 1.425 1.425 0 0 1 .235-.024 3.912 3.912 0 0 1 .968.194c.126.035.317.087.441.115.079-.049.2-.138.285-.2.11-.079.218-.156.318-.218a.857.857 0 0 1 .793-.059 5.193 5.193 0 0 0 2.218.436Zm1.5-9.33A2.571 2.571 0 1 1 15.429 6 2.574 2.574 0 0 1 18 3.429Zm0 3.429A.857.857 0 1 0 17.143 6a.858.858 0 0 0 .857.857Z" fill="#363c4a"/></svg>