<svg xmlns="http://www.w3.org/2000/svg" width="24" height="18.848"><path d="M3 0a3.012 3.012 0 0 0-3 3v12.85a3.012 3.012 0 0 0 3 3h10.28a3.012 3.012 0 0 0 3-3v-2.142a.857.857 0 1 0-1.714 0v2.142a1.272 1.272 0 0 1-1.285 1.285H3a1.272 1.272 0 0 1-1.285-1.285V3A1.272 1.272 0 0 1 3 1.713h10.28A1.272 1.272 0 0 1 14.565 3v2.14a.857.857 0 1 0 1.714 0V3a3.012 3.012 0 0 0-3-3Zm15.841 4.275a.857.857 0 0 0-.6 1.471l2.821 2.821H8.514a.857.857 0 1 0 0 1.714h12.55L18.243 13.1a.857.857 0 1 0 1.212 1.212l4.208-4.212a.857.857 0 0 0 0-1.364L19.457 4.53a.857.857 0 0 0-.615-.26Z" fill="#363c4a"/></svg>