<svg xmlns="http://www.w3.org/2000/svg" width="32" height="32"><g data-name="Grupo 1062"><g fill="#363c4a"><path d="M7 7a3.012 3.012 0 0 0-3 3v12.857a3.012 3.012 0 0 0 3 3h18a3.012 3.012 0 0 0 3-3V10a3.012 3.012 0 0 0-3-3Zm0 1.714h18A1.265 1.265 0 0 1 26.286 10v12.857A1.265 1.265 0 0 1 25 24.143H7a1.265 1.265 0 0 1-1.286-1.286V10A1.265 1.265 0 0 1 7 8.714Z"/><path d="M23.719 10.421a.857.857 0 0 0-.531.188L16 16.2l-7.188-5.591a.857.857 0 1 0-1.052 1.353l7.714 6a.857.857 0 0 0 1.052 0l7.714-6a.857.857 0 0 0-.521-1.541Z"/></g><path data-name="Retângulo 575" fill="none" d="M0 0h32v32H0z"/></g></svg>