<svg id="Grupo_795" data-name="Grupo 795" xmlns="http://www.w3.org/2000/svg" width="32" height="32" viewBox="0 0 32 32">
  <path id="Retângulo_572" data-name="Retângulo 572" d="M0,0H32V32H0Z" fill="none"/>
  <g id="Grupo_789" data-name="Grupo 789">
    <path id="Caminho_26" data-name="Caminho 26" d="M12.031,26.418a1.784,1.784,0,1,1,1.784-1.784,1.784,1.784,0,0,1-1.784,1.784ZM12.031,24.634ZM12.031,24.634ZM12.031,24.634ZM12.031,24.634ZM12.031,24.634ZM12.031,24.634ZM12.031,24.634Z" fill="#fff"/>
  </g>
  <g id="Grupo_790" data-name="Grupo 790">
    <path id="Caminho_27" data-name="Caminho 27" d="M24.527,26.418a1.784,1.784,0,1,1,1.784-1.784,1.784,1.784,0,0,1-1.784,1.784ZM24.527,24.634Z" fill="#fff"/>
  </g>
  <g id="Grupo_791" data-name="Grupo 791">
    <path id="Caminho_28" data-name="Caminho 28" d="M25.419,21.948H11.14a.893.893,0,0,1-.878-.736L7.711,6.784H4.892A.892.892,0,1,1,4.892,5h3.57a.893.893,0,0,1,.878.736l2.551,14.428H25.419a.892.892,0,0,1,0,1.784Z" fill="#fff"/>
  </g>
  <g id="Grupo_792" data-name="Grupo 792">
    <path id="Caminho_29" data-name="Caminho 29" d="M25.048,18.376h-13.9a.892.892,0,0,1,0-1.784H24.691l1.427-7.136H9.363a.892.892,0,0,1,0-1.784h17.3a1.335,1.335,0,0,1,1.316,1.591L26.373,17.3a1.353,1.353,0,0,1-1.325,1.077ZM24.617,16.949Z" fill="#fff"/>
  </g>
</svg>
