<svg xmlns="http://www.w3.org/2000/svg" width="32" height="32"><g data-name="Grupo 795"><path data-name="Retângulo 572" fill="none" d="M0 0h32v32H0z"/><g data-name="Grupo 789"><path data-name="Caminho 26" d="M12.031 26.418a1.784 1.784 0 1 1 1.784-1.784 1.789 1.789 0 0 1-1.784 1.784Zm0-1.784Zm0 0Zm0 0Zm0 0Zm0 0Zm0 0Zm0 0Z" fill="#ff3e3e"/></g><g data-name="Grupo 790"><path data-name="Caminho 27" d="M24.527 26.418a1.784 1.784 0 1 1 1.784-1.784 1.789 1.789 0 0 1-1.784 1.784Zm0-1.784Z" fill="#ff3e3e"/></g><g data-name="Grupo 791"><path data-name="Caminho 28" d="M25.419 21.948H11.14a.893.893 0 0 1-.878-.736L7.711 6.784H4.892a.892.892 0 1 1 0-1.784h3.57a.893.893 0 0 1 .878.736l2.551 14.428h13.528a.892.892 0 1 1 0 1.784Z" fill="#ff3e3e"/></g><g data-name="Grupo 792"><path data-name="Caminho 29" d="M25.048 18.376h-13.9a.892.892 0 0 1 0-1.784h13.543l1.427-7.136H9.363a.892.892 0 0 1 0-1.784h17.3a1.335 1.335 0 0 1 1.316 1.591l-1.606 8.036a1.353 1.353 0 0 1-1.325 1.077Zm-.431-1.427Z" fill="#ff3e3e"/></g></g></svg>