<svg xmlns="http://www.w3.org/2000/svg" width="32" height="32"><g data-name="Grupo 1060"><path data-name="Retângulo 575" fill="none" d="M0 0h32v32H0z"/><g transform="translate(-132 -59.986)" fill="#363c4a"><path d="M147.727 63.987a7.888 7.888 0 0 0-5 1.676A7.58 7.58 0 0 0 140 70.6a1.335 1.335 0 1 0 2.668.116 4.319 4.319 0 0 1 1.754-3 5.211 5.211 0 0 1 3.338-1.066 6.575 6.575 0 0 1 2.433.387 5.786 5.786 0 0 1 1.711 1.229 3.312 3.312 0 0 1 .912 2.389 3.789 3.789 0 0 1-.942 2.695 13.339 13.339 0 0 1-2.642 2.159 6.951 6.951 0 0 0-3.359 5.828 1.335 1.335 0 1 0 2.671 0c0-1.417.236-2.276 2.2-3.628a14.913 14.913 0 0 0 3.181-2.65 6.775 6.775 0 0 0 1.56-4.4 6.191 6.191 0 0 0-1.6-4.183 8.232 8.232 0 0 0-2.517-1.835 8.106 8.106 0 0 0-3.638-.657Z"/><circle cx="2" cy="2" r="2" transform="translate(145 84.986)"/></g></g></svg>