<svg xmlns="http://www.w3.org/2000/svg" width="16" height="16"><g data-name="Grupo 1488"><g fill="#07b338"><path data-name="Caminho 42" d="M7.935 14.001a4.935 4.935 0 1 1 0-9.87c1.879 0 2.222.169 2.316.574a.55.55 0 0 1-.324.613.449.449 0 0 1-.6-.2l-.011-.023a10.718 10.718 0 0 0-1.381-.063 4.038 4.038 0 1 0 4.038 4.038.45.45 0 1 1 .9 0 4.941 4.941 0 0 1-4.938 4.931Z"/><path data-name="Caminho 43" d="M7.936 7.384a.449.449 0 0 1-.317-.766l1.926-1.926-1.926-1.926a.449.449 0 0 1 .634-.634l2.243 2.243a.449.449 0 0 1 0 .634L8.253 7.252a.447.447 0 0 1-.317.132Z"/></g><path data-name="Retângulo 573" fill="none" d="M0 0h16v16H0z"/></g></svg>