<svg xmlns="http://www.w3.org/2000/svg" width="32" height="32"><g data-name="Grupo 750"><path data-name="Retângulo 635" fill="none" d="M0 0h32v32H0z"/><g fill="#ff3e3e"><path d="M14.502 5a3.515 3.515 0 0 0-3.5 3.5V11a1 1 0 1 0 2 0V8.5a1.485 1.485 0 0 1 1.5-1.5h10a1.485 1.485 0 0 1 1.5 1.5v15a1.485 1.485 0 0 1-1.5 1.5h-9.5a2.512 2.512 0 0 1-1.4-.519 1.348 1.348 0 0 1-.6-.981V21a1 1 0 1 0-2 0v2.5a3.294 3.294 0 0 0 1.365 2.555 4.3 4.3 0 0 0 2.635.945h9.5a3.515 3.515 0 0 0 3.5-3.5v-15a3.515 3.515 0 0 0-3.5-3.5Z"/><path d="M17.99 9.99a1 1 0 0 0-.7 1.717L20.583 15H5.002a1 1 0 1 0 0 2h15.584l-3.293 3.293a1 1 0 1 0 1.414 1.414l5-5a1 1 0 0 0 0-1.414l-5-5a1 1 0 0 0-.717-.303Z"/></g></g></svg>