<svg id="Componente_6_2" data-name="Componente 6 – 2" xmlns="http://www.w3.org/2000/svg" width="160" height="170" viewBox="0 0 160 170">
  <rect id="Retângulo_1239" data-name="Retângulo 1239" width="160" height="160" rx="12" transform="translate(0 10)" fill="#d4d8e1"/>
  <g id="Retângulo_1242" data-name="Retângulo 1242" fill="#f2f2f2" stroke="#d4d8e1" stroke-width="1">
    <rect width="160" height="160" rx="12" stroke="none"/>
    <rect x="0.5" y="0.5" width="159" height="159" rx="11.5" fill="none"/>
  </g>
  <text id="_0800_014_4500" data-name="0800 014 4500" transform="translate(80 127)" fill="#363c4a" font-size="16" font-family="OpenSans-Bold, Open Sans" font-weight="700"><tspan x="-54.387" y="0">0800 014 4500</tspan></text>
  <g id="Grupo_1523" data-name="Grupo 1523" transform="translate(-1361 -1220)">
    <rect id="Retângulo_1243" data-name="Retângulo 1243" width="64" height="64" transform="translate(1409 1248)" fill="none"/>
    <path id="call-outline" d="M70.509,80.028h0c-2.463,0-5.542-1.054-9.414-3.223A61.381,61.381,0,0,1,46.282,65.724a56.132,56.132,0,0,1-11.131-14.8c-3.95-7.175-3.276-10.945-2.523-12.554a10.018,10.018,0,0,1,3.936-4.209,18.95,18.95,0,0,1,3.052-1.628l.311-.136a3.376,3.376,0,0,1,1.447-.383c1.147,0,1.988.746,3.14,1.884a36.991,36.991,0,0,1,5.59,8.3c1.347,2.9,1.68,3.939-.271,6.595-.14.191-.278.372-.412.548-.818,1.075-1,1.382-.879,1.935a20.32,20.32,0,0,0,4.95,7.342c2.858,2.849,6.021,4.567,7.258,4.831a1.45,1.45,0,0,0,.3.035c.441,0,.885-.324,1.7-.943l.491-.372a5.408,5.408,0,0,1,3.245-1.452A7.765,7.765,0,0,1,69.9,61.907a40.989,40.989,0,0,1,8.27,5.549c1.708,1.725,2.365,2.68,1.5,4.589l-.133.3a18.826,18.826,0,0,1-1.63,3.048,10,10,0,0,1-4.226,3.932A7.249,7.249,0,0,1,70.509,80.028ZM41.268,35.552c-.1.045-.209.093-.329.143a15.468,15.468,0,0,0-2.485,1.325,6.659,6.659,0,0,0-2.721,2.8c-.213.456-1.1,3.052,2.422,9.447A52.569,52.569,0,0,0,48.7,63.3,57.571,57.571,0,0,0,62.772,73.814c3.3,1.848,5.9,2.785,7.737,2.785h0a3.789,3.789,0,0,0,1.729-.379A6.645,6.645,0,0,0,75.054,73.5a15.358,15.358,0,0,0,1.326-2.481c.047-.112.094-.218.138-.316-.141-.166-.379-.426-.783-.833a37.7,37.7,0,0,0-7.377-4.9,9.531,9.531,0,0,0-1.872-.828,6.747,6.747,0,0,0-1.2.775l-.454.344a6.029,6.029,0,0,1-3.779,1.648,4.9,4.9,0,0,1-1.019-.111c-2.017-.43-5.743-2.545-8.964-5.756-3.255-3.244-5.459-7.085-5.882-9.051-.462-2.152.582-3.523,1.5-4.733.122-.161.249-.327.377-.5.842-1.146.842-1.146-.074-3.117a34.471,34.471,0,0,0-4.889-7.3C41.7,35.932,41.434,35.693,41.268,35.552Z" transform="translate(1384.947 1223.988)" fill="#363c4a"/>
  </g>
</svg>
